<?xml version="1.0" encoding="UTF-8"?>
<svg id="Ebene_2" data-name="Ebene 2" xmlns="http://www.w3.org/2000/svg" viewBox="0 0 680.31 182.04">
  <defs>
    <style>
      .cls-1 {
        fill: #fffaeb;
      }

      .cls-1, .cls-2 {
        stroke-width: 0px;
      }

      .cls-2 {
        fill: #b49300;
      }
    </style>
  </defs>
  <g id="Ebene_1-2" data-name="Ebene 1">
    <g>
      <path class="cls-2" d="M1.7,12.39s8.87.36,13.48.36c3.28,0,15.3-.49,15.3-.49,16.76,0,26,7.65,26,21.62s-13.36,26.6-27.82,26.6h-10.2l-.24,11.9c0,11.05.61,12.39,5.35,12.39,2.43,0,6.56-.36,6.56-.36l.24.49-1.09,5.59c0-.12-7.04-.36-11.17-.36-6.56,0-17.85.61-18.1.97l.85-5.59c7.04-1.21,8.75-3.04,8.75-9.96l.12-51.02c0-5.22-.97-6.56-4.5-6.56-1.46,0-4.13.24-4.13.24l-.24-.48.85-5.35ZM31.58,55.15c9.72-1.58,14.7-8.02,14.7-18.95,0-12.39-7.04-17.98-22.84-17.98-2.91,0-3.16,0-3.28,1.7-.73,10.81-1.22,22.96-1.46,33.4l12.88,1.82Z"/>
      <path class="cls-2" d="M91.45,54.66c0-8.14-3.89-12.88-10.69-12.88-7.9,0-14.58,6.08-14.58,6.08l-.61-.37-1.46-5.22s14.57-8.5,19.8-8.5c10.57,0,16.89,5.83,16.89,15.67,0,4.37-2.19,20.77-2.19,27.94,0,3.52,1.82,5.59,4.98,5.59,3.89,0,7.29-3.04,7.29-3.04l1.7,1.94s-4.5,7.65-10.57,9.72c-6.56,0-10.2-3.28-10.81-9.84l-.49-.12c-5.83,5.83-10.93,9.48-13.36,9.48-8.99,0-15.55-6.32-15.55-15.06,0-4.74,2.55-8.62,6.44-9.72l22.96-6.31.24-5.35ZM90.96,64.62l-16.4,4.98c-2.31.73-3.52,2.55-3.52,5.1,0,4.62,3.52,8.14,8.38,8.14,3.04,0,7.65-2.43,11.05-5.83l.49-12.39Z"/>
      <path class="cls-2" d="M138.81,91.22c-13.97,0-23.44-10.33-23.44-25.63,0-17.49,13.6-31.82,30.25-31.82,2.19,0,4.98.12,8.38.49V14.09c0-4.49-1.46-6.56-4.5-6.56-1.34,0-3.03.49-3.03.49l.49-4.49c8.38-1.09,17.98-3.52,17.98-3.52l.73,1.58c-1.7,2.79-3.4,40.2-3.4,75.79,0,3.52,1.82,5.59,4.98,5.59,3.89,0,7.29-3.04,7.29-3.04l1.7,1.94s-4.86,8.02-10.57,9.72c-6.44,0-9.96-2.92-10.81-8.62l-.85-.36c-8.38,5.71-13.48,8.62-15.18,8.62ZM154,43.61s-4.5-2.79-11.78-2.79c-10.81,0-17.49,7.9-17.49,20.65s7.05,21.87,16.03,21.87c5.83,0,13.24-6.44,13.24-6.44v-33.28Z"/>
      <path class="cls-2" d="M187.02,75.68v-26.72c0-5.35-1.34-7.41-4.62-7.41-1.34,0-2.55.37-2.55.37l-.6-.85.36-3.77c7.41-1.34,16.4-3.64,16.4-3.64l.85.73s-1.22,6.8-1.09,12.51l.49.36c4.98-7.65,12.27-13,17.13-13,2.67,0,3.76.49,3.76.49l.36.49s-1.7,9.96-1.94,17.37l-4.74.36c0-6.68-.61-8.26-3.28-8.26-3.52,0-7.9,3.16-11.3,8.26,0,0-.97,22.11-.97,24.78,0,5.47,1.22,7.04,5.83,7.04,1.7,0,5.35-.24,5.35-.24l.12.49-1.09,5.35s-7.65-.24-12.39-.24c-7.16,0-12.75.49-12.75.49l.61-4.86c4.86-.49,6.07-2.43,6.07-10.08Z"/>
      <path class="cls-2" d="M231.34,58.79v1.94c0,13.6,7.17,22.59,17.98,22.59,7.53,0,14.94-3.77,14.94-3.77l.73.24,1.34,3.52s-11.3,8.26-18.59,8.26c-15.31,0-25.51-10.81-25.51-26.84s12.39-30.98,26.84-30.98c11.9,0,18.1,6.08,18.1,17.61,0,3.04-.73,5.95-.73,5.95l-1.58,1.46h-33.52ZM253.81,53.2c2.43-.24,3.04-.85,3.04-3.28,0-6.44-3.64-9.96-10.08-9.96-7.53,0-13.48,5.47-14.94,14.33l21.99-1.09Z"/>
      <path class="cls-2" d="M442.41,84.78c2.43,0,8.63-.36,8.63-.36l.24.49-1.09,5.71s-11.54-.49-18.1-.49c-6.07,0-13.85,1.46-13.85,1.46l.73-5.59c7.53-1.46,9.48-3.64,9.48-10.45l.12-51.02c0-5.22-.85-6.56-4.5-6.56-1.46,0-4.13.24-4.13.24l-.25-.48.85-5.35s9.59.36,16.88.36c16.64,0,26.48-.36,34.13-1.46l.36.73s-2.06,9.35-2.79,20.53l-5.84.49s.25-3.89.25-5.59c0-7.9-1.46-8.63-16.28-8.63-7.89,0-8.38.24-8.5,4.74l-.97,25.63,12.51.12c3.77,0,12.76-1.33,12.76-1.33l.49.61-1.71,7.29s-9.23-.37-14.94-.37c-3.65,0-7.29.49-9.35.85l-.49,20.16c0,6.56,1.09,8.26,5.34,8.26Z"/>
      <path class="cls-2" d="M480.41,86.61c4.86-1.34,6.8-3.64,6.8-7.89v-30.85c0-4.5-1.46-6.56-4.5-6.56-1.33,0-3.04.48-3.04.48l.49-4.49c8.13-1.22,17.49-3.53,17.49-3.53l.6,1.46c-1.45,3.4-2.79,23.93-2.79,43,0,4.74,1.21,6.8,4.25,6.8,1.46,0,4.26-.24,4.26-.24l.24.49-.97,5.22s-6.31-.36-10.8-.36c-5.1,0-12.51,1.46-12.51,1.46l.49-4.98ZM484.78,10.81c0-4.01,3.16-7.17,7.17-7.17,3.4,0,5.95,2.55,5.95,6.2,0,4.01-3.16,7.17-7.17,7.17-3.52,0-5.95-2.55-5.95-6.2Z"/>
      <path class="cls-2" d="M527.04,73.37c-3.27,1.82-5.1,3.77-5.1,5.35,0,3.76,4.61,5.59,14.58,5.95,18.83.97,25.88,4.5,25.88,13,0,11.17-14.69,21.86-30.12,21.86-11.54,0-18.35-5.95-18.35-16.15,4.01-5.34,12.03-10.93,12.03-10.93v-.73c-7.53-.97-13.24-6.08-13.24-11.9,3.76-3.89,10.2-7.77,10.2-7.77v-.49c-5.71-3.04-8.99-8.99-8.99-16.16,0-11.54,10.57-21.62,22.59-21.62,4.62,0,8.75,1.34,11.91,1.34,6.19-.73,16.76-3.64,16.76-3.64l.37.49-1.33,6.8s-5.35.73-10.45,1.09l-.49.61c3.16,3.52,4.85,7.77,4.85,12.27,0,12.14-10.57,21.62-24.05,21.62-2.3,0-4.48-.36-7.04-.97ZM549.03,55.76c0-9.35-5.7-15.79-13.97-15.79-7.4,0-12.03,5.22-12.03,13.36,0,9.35,5.6,15.67,13.97,15.67,7.41,0,12.03-4.98,12.03-13.24ZM554.62,101.55c0-4.74-4.25-6.44-23.68-8.99,0,0-7.53,5.59-7.53,11.06,0,6.19,4.98,9.96,13.37,9.96,9.47,0,17.85-5.71,17.85-12.03Z"/>
      <path class="cls-2" d="M568.94,86.61c7.04-1.95,6.8-5.22,6.8-12.88V14.09c0-4.49-1.46-6.56-4.49-6.56-1.33,0-3.04.49-3.04.49,0-.73.13-1.46.25-2.19l.24-2.31c8.38-1.09,17.98-3.52,17.98-3.52l.74,1.58c-1.71,2.67-3.4,40.57-3.4,76.65,0,4.86,1.21,6.8,4.25,6.8,1.46,0,4.26-.24,4.26-.24l.24.49-.97,5.22s-6.31-.36-10.8-.36c-5.1,0-12.51,1.46-12.51,1.46l.48-4.98Z"/>
      <path class="cls-2" d="M598.2,86.61c4.86-1.34,6.81-3.64,6.81-7.89v-30.85c0-4.5-1.46-6.56-4.5-6.56-1.34,0-3.04.48-3.04.48l.49-4.49c8.14-1.22,17.49-3.53,17.49-3.53l.6,1.46c-1.46,3.4-2.8,23.93-2.8,43,0,4.74,1.22,6.8,4.26,6.8,1.46,0,4.25-.24,4.25-.24l.25.49-.97,5.22s-6.32-.36-10.82-.36c-5.1,0-12.51,1.46-12.51,1.46l.49-4.98ZM602.58,10.81c0-4.01,3.15-7.17,7.16-7.17,3.4,0,5.95,2.55,5.95,6.2,0,4.01-3.15,7.17-7.16,7.17-3.52,0-5.95-2.55-5.95-6.2Z"/>
      <path class="cls-2" d="M628.56,64.62c0-17.37,12.28-30.86,28.19-30.86,13.84,0,23.56,11.06,23.56,26.97,0,17.37-12.27,30.85-28.19,30.85-13.96,0-23.57-11.06-23.57-26.96ZM670.35,65.11c0-14.58-7.04-24.78-17.25-24.78-9.11,0-14.81,8.02-14.81,20.77,0,14.58,7.04,24.54,17.24,24.54,9.11,0,14.82-7.9,14.82-20.53Z"/>
    </g>
    <path class="cls-2" d="M375.15,30.13c2.1-1.93,7.24-6.5,7.54-8.55.02-.16.02-.37.04-.54,6.89,8.73,10.92,19.67,11,31.31-2.2,1.77-7.73,6.07-9.37,5.83-5.35-.78-19.51-6.33-24.57-7.07l-2.3.37-13.06,10.97-.1.68,2.75,3.2.69.1s8-6.95,10.47-6.59l6.96,2.14c-5.77,15.67-17.6,23.88-31.98,21.78-12.06-1.75-19.32-9.52-20.34-20.72,36.57-14.82,50.7-22.56,62.28-32.9ZM331.43,33.56c-7.81-1.13-16.06,7.46-18.01,20.88l-.46,3.15c17.63-7.79,21.77-11.24,22.73-17.81.5-3.42-1.11-5.76-4.26-6.22ZM382.76,67.18l-10.19-3.02c-8.23,18.11-26.97,29.65-44.37,27.12-17.26-2.51-26.05-16.1-23.36-34.59,2.77-19.04,18.46-32.7,31.89-30.75,6.71.98,10.17,5.11,9.29,11.14-.56,3.83-2.85,6.16-2.85,6.16l.5.36c16.91-8.74,27.52-18.29,32.56-29.4-7.19-6.3-16.19-10.69-26.36-12.16-28.02-4.07-54.05,15.34-58.13,43.38-4.08,28.02,15.34,54.06,43.36,58.13,28.05,4.08,54.07-15.34,58.14-43.36.03-.21.03-.41.06-.62l-8.22,6.98-2.34.64Z"/>
    <g>
      <path class="cls-1" d="M140.97,170.64c-3.67,7.28-9.5,11.4-17.83,11.4-10.68,0-19.27-7.93-19.27-19.14,0-9.83,8.65-18.48,19.27-18.48,7.86,0,14.88,4.39,17.83,11.73h-5.05c-2.69-4.98-7.47-7.6-12.65-7.6-8.26,0-14.81,6.49-14.81,14.61s6.49,14.75,14.81,14.75c5.44,0,10.09-2.49,12.65-7.28h5.05Z"/>
      <path class="cls-1" d="M174.72,181.19v-5.57h-.13c-2.03,4.13-6.23,6.42-11.4,6.42-7.67,0-15.53-4.06-15.53-16.19v-20.51h4.59v19.99c0,8.13,3.47,12.58,10.94,12.58,6.16,0,11.27-4.33,11.27-12.91v-19.66h4.59v35.85h-4.33Z"/>
      <path class="cls-1" d="M223.22,170.64c-3.67,7.28-9.5,11.4-17.83,11.4-10.68,0-19.27-7.93-19.27-19.14,0-9.83,8.65-18.48,19.27-18.48,7.86,0,14.88,4.39,17.83,11.73h-5.05c-2.69-4.98-7.47-7.6-12.65-7.6-8.26,0-14.81,6.49-14.81,14.61s6.49,14.75,14.81,14.75c5.44,0,10.09-2.49,12.65-7.28h5.05Z"/>
      <path class="cls-1" d="M230.11,140.95v-8.26h4.59v8.26h-4.59ZM230.11,181.19v-35.85h4.59v35.85h-4.59Z"/>
      <path class="cls-1" d="M270.15,181.19v-19.99c0-8.06-4.85-12.65-11.14-12.65-6.95,0-11.21,5.31-11.21,12.32v20.32h-4.59v-35.85h4.59v4.59h.13c2.29-3.47,6.36-5.5,11.01-5.5,9.9,0,15.79,6.82,15.79,16.78v19.99h-4.59Z"/>
      <path class="cls-1" d="M315.05,181.19v-6.29h-.13c-2.95,4.46-8.13,7.14-13.96,7.14-10.75,0-19.27-8.13-19.27-18.87s8.78-18.74,19.27-18.74c5.96,0,11.08,2.69,13.96,7.21h.13v-6.29h4.59v35.85h-4.59ZM315.31,163.3c0-8-6.29-14.75-14.42-14.75s-14.61,6.29-14.61,14.81,6.23,14.55,14.68,14.55c8,0,14.35-6.55,14.35-14.62Z"/>
      <path class="cls-1" d="M346.12,140.95v-8.26h4.59v8.26h-4.59ZM346.12,181.19v-35.85h4.59v35.85h-4.59Z"/>
      <path class="cls-1" d="M363.42,181.19v-31.72h-7.54v-4.13h7.54v-12.65h4.59v12.65h8.58v4.13h-8.58v31.72h-4.59Z"/>
      <path class="cls-1" d="M413.29,181.19v-6.29h-.13c-2.95,4.46-8.13,7.14-13.96,7.14-10.75,0-19.27-8.13-19.27-18.87s8.78-18.74,19.27-18.74c5.96,0,11.08,2.69,13.96,7.21h.13v-6.29h4.59v35.85h-4.59ZM413.56,163.3c0-8-6.29-14.75-14.42-14.75s-14.62,6.29-14.62,14.81,6.23,14.55,14.68,14.55c8,0,14.35-6.55,14.35-14.62Z"/>
      <path class="cls-1" d="M426.21,181.19v-48.5h4.59v48.5h-4.59Z"/>
      <path class="cls-1" d="M439.32,140.95v-8.26h4.59v8.26h-4.59ZM439.32,181.19v-35.85h4.59v35.85h-4.59Z"/>
      <path class="cls-1" d="M484.28,181.19v-6.29h-.13c-2.95,4.46-8.13,7.14-13.96,7.14-10.75,0-19.27-8.13-19.27-18.87s8.78-18.74,19.27-18.74c5.96,0,11.08,2.69,13.96,7.21h.13v-6.29h4.59v35.85h-4.59ZM484.54,163.3c0-8-6.29-14.75-14.42-14.75s-14.62,6.29-14.62,14.81,6.23,14.55,14.68,14.55c8,0,14.35-6.55,14.35-14.62Z"/>
      <path class="cls-1" d="M524.13,181.19v-19.99c0-8.06-4.85-12.65-11.14-12.65-6.95,0-11.21,5.31-11.21,12.32v20.32h-4.59v-35.85h4.59v4.59h.13c2.29-3.47,6.36-5.5,11.01-5.5,9.9,0,15.79,6.82,15.79,16.78v19.99h-4.59Z"/>
      <path class="cls-1" d="M569.02,181.19v-6.29h-.13c-2.95,4.46-8.13,7.14-13.96,7.14-10.75,0-19.27-8.13-19.27-18.87s8.78-18.74,19.27-18.74c5.96,0,11.08,2.69,13.96,7.21h.13v-6.29h4.59v35.85h-4.59ZM569.29,163.3c0-8-6.29-14.75-14.42-14.75s-14.62,6.29-14.62,14.81,6.23,14.55,14.68,14.55c8,0,14.35-6.55,14.35-14.62Z"/>
    </g>
  </g>
</svg>